<svg width="25" height="25" viewBox="0 0 25 25" fill="none" xmlns="http://www.w3.org/2000/svg">
<path d="M21.1001 6C17.7701 5.67 14.4201 5.5 11.0801 5.5C9.1001 5.5 7.1201 5.6 5.1401 5.8L3.1001 6" stroke="#23408F" stroke-width="1.5" stroke-linecap="round" stroke-linejoin="round"/>
<path d="M8.6001 4.99L8.8201 3.68C8.9801 2.73 9.1001 2.02 10.7901 2.02H13.4101C15.1001 2.02 15.2301 2.77 15.3801 3.69L15.6001 4.99" stroke="#23408F" stroke-width="1.5" stroke-linecap="round" stroke-linejoin="round"/>
<path d="M18.95 9.16L18.3 19.23C18.19 20.8 18.1 22.02 15.31 22.02H8.89C6.1 22.02 6.01 20.8 5.9 19.23L5.25 9.16" stroke="#23408F" stroke-width="1.5" stroke-linecap="round" stroke-linejoin="round"/>
<path d="M10.4302 16.52H13.7602" stroke="#23408F" stroke-width="1.5" stroke-linecap="round" stroke-linejoin="round"/>
<path d="M9.6001 12.52H14.6001" stroke="#23408F" stroke-width="1.5" stroke-linecap="round" stroke-linejoin="round"/>
</svg>
