<svg width="20" height="20" viewBox="0 0 20 20" fill="none" xmlns="http://www.w3.org/2000/svg">
<path d="M3.13732 16.8626H4.37411L14.41 6.82672L13.1732 5.58992L3.13732 15.6258V16.8626ZM2.55288 18.3332C2.30182 18.3332 2.09137 18.2482 1.92153 18.0784C1.75167 17.9086 1.66675 17.6981 1.66675 17.447V15.7484C1.66675 15.5093 1.71263 15.2814 1.8044 15.0647C1.89614 14.848 2.02246 14.6593 2.18334 14.4984L14.5986 2.08883C14.7468 1.95418 14.9105 1.85012 15.0896 1.77668C15.2688 1.70323 15.4566 1.6665 15.6532 1.6665C15.8497 1.6665 16.0402 1.70139 16.2244 1.77116C16.4087 1.84092 16.5718 1.95183 16.7139 2.10391L17.9111 3.31619C18.0632 3.45822 18.1716 3.62165 18.2363 3.80649C18.301 3.99131 18.3334 4.17613 18.3334 4.36095C18.3334 4.55809 18.2997 4.74623 18.2324 4.92536C18.1651 5.10451 18.058 5.26822 17.9111 5.41647L5.50154 17.8166C5.34066 17.9775 5.15188 18.1038 4.93521 18.1955C4.71853 18.2873 4.49065 18.3332 4.25156 18.3332H2.55288ZM13.7808 6.21917L13.1732 5.58992L14.41 6.82672L13.7808 6.21917Z" fill="black"/>
</svg>
