<svg width="25" height="24" viewBox="0 0 25 24" fill="none" xmlns="http://www.w3.org/2000/svg">
<path d="M20.6786 18.224L20.6786 18.224L20.676 18.2243L20.366 18.2643L20.3635 18.2646C18.6692 18.4919 16.3162 19.1868 14.4274 19.9788C14.116 20.1075 13.75 19.8732 13.75 19.5102V5.60018C13.75 5.42245 13.8517 5.24638 14.0288 5.14948C15.8004 4.19125 18.4898 3.3383 20.2916 3.18018H20.33C21.2539 3.18018 22 3.92632 22 4.85018V16.7402C22 17.4555 21.4004 18.1347 20.6786 18.224Z" fill="#23408F" stroke="#23408F"/>
<path d="M4.31162 18.224L4.31422 18.2243L4.62422 18.2643L4.62671 18.2646C6.32106 18.4919 8.67396 19.1867 10.5627 19.9787M4.31162 18.224L4.73023 3.18018H4.70867M4.31162 18.224C3.58984 18.1347 2.99023 17.4555 2.99023 16.7402V4.85018C2.99023 3.92632 3.73638 3.18018 4.66023 3.18018H4.70867M4.31162 18.224L4.70867 3.18018M10.5627 19.9787C10.563 19.9788 10.5633 19.979 10.5636 19.9791L10.3703 20.4401L10.562 19.9784C10.5623 19.9785 10.5625 19.9786 10.5627 19.9787ZM10.5627 19.9787C10.8742 20.1075 11.2402 19.8733 11.2402 19.5102V5.60018C11.2402 5.40607 11.1428 5.24319 10.9714 5.14946M10.9714 5.14946C10.9717 5.14962 10.972 5.14978 10.9723 5.14995L11.2102 4.71018L10.9708 5.14912C10.971 5.14923 10.9712 5.14935 10.9714 5.14946ZM10.9714 5.14946C9.19979 4.19124 6.51039 3.3383 4.70867 3.18018M7.75023 7.24018H5.50023C4.81409 7.24018 4.25023 7.80403 4.25023 8.49018C4.25023 9.19065 4.81845 9.74018 5.50023 9.74018H7.75023C8.43202 9.74018 9.00023 9.19065 9.00023 8.49018C9.00023 7.80403 8.43638 7.24018 7.75023 7.24018ZM5.50023 12.7402H8.50023C9.18202 12.7402 9.75023 12.1907 9.75023 11.4902C9.75023 10.804 9.18638 10.2402 8.50023 10.2402H5.50023C4.81409 10.2402 4.25023 10.804 4.25023 11.4902C4.25023 12.1907 4.81845 12.7402 5.50023 12.7402Z" fill="#23408F" stroke="#23408F"/>
</svg>
