<svg width="18" height="18" viewBox="0 0 18 18" fill="none" xmlns="http://www.w3.org/2000/svg">
<path d="M10.1427 3.01566L11.3894 5.509C11.5594 5.85608 12.0127 6.189 12.3952 6.25275L14.6548 6.62816C16.0998 6.869 16.4398 7.91733 15.3985 8.9515L13.6419 10.7082C13.3444 11.0057 13.1815 11.5794 13.2735 11.9902L13.7765 14.1648C14.1731 15.8861 13.2594 16.5519 11.7365 15.6523L9.61854 14.3986C9.23604 14.1719 8.60563 14.1719 8.21604 14.3986L6.09813 15.6523C4.58229 16.5519 3.66146 15.879 4.05813 14.1648L4.56104 11.9902C4.65313 11.5794 4.49021 11.0057 4.19271 10.7082L2.43604 8.9515C1.40188 7.91733 1.73479 6.869 3.17979 6.62816L5.43938 6.25275C5.81479 6.189 6.26813 5.85608 6.43813 5.509L7.68479 3.01566C8.36479 1.66275 9.46979 1.66275 10.1427 3.01566Z" fill="#FFC403"/>
</svg>
