<svg width="12" height="14" viewBox="0 0 12 14" fill="none" xmlns="http://www.w3.org/2000/svg">
<path d="M0.75 12.6875C0.80917 12.6877 0.867536 12.6715 0.920328 12.6403C0.97312 12.6092 1.01884 12.5639 1.05375 12.5081L1.84875 11.2306C2.93301 9.49638 4.55911 8.33014 6.375 7.98438V9.625C6.375 9.70625 6.39439 9.78589 6.43101 9.85501C6.46762 9.92412 6.52001 9.97998 6.5823 10.0163C6.64458 10.0526 6.71432 10.068 6.78368 10.0607C6.85304 10.0534 6.91929 10.0237 6.975 9.975L11.475 6.0375C11.5216 5.99675 11.5594 5.94391 11.5854 5.88316C11.6114 5.82241 11.625 5.75542 11.625 5.6875C11.625 5.61958 11.6114 5.55259 11.5854 5.49184C11.5594 5.43109 11.5216 5.37825 11.475 5.3375L6.975 1.4C6.91929 1.35125 6.85304 1.32156 6.78368 1.31427C6.71432 1.30697 6.64458 1.32235 6.5823 1.35869C6.52001 1.39502 6.46762 1.45088 6.43101 1.51999C6.39439 1.58911 6.375 1.66875 6.375 1.75V3.605C4.70169 3.91716 3.17853 4.91488 2.07889 6.41909C0.979254 7.9233 0.375148 9.83551 0.375 11.8125V12.25C0.375058 12.3423 0.400114 12.4321 0.446586 12.5068C0.493058 12.5814 0.558567 12.637 0.63375 12.6656C0.671427 12.6792 0.710562 12.6866 0.75 12.6875V12.6875ZM6.75 7.04813H6.7125C5.63093 7.17829 4.5849 7.57234 3.64233 8.20471C2.69975 8.83708 1.88169 9.69362 1.24125 10.7188L1.18125 10.8106C1.37367 9.16642 2.03188 7.64452 3.05117 6.48706C4.07045 5.32961 5.39225 4.6031 6.80625 4.42313C6.89839 4.41123 6.9835 4.35993 7.04513 4.27914C7.10677 4.19835 7.14056 4.09378 7.14 3.98563V2.625L10.6237 5.6875L7.125 8.75V7.48563C7.12488 7.42457 7.1138 7.36423 7.09249 7.30847C7.07118 7.25271 7.0401 7.20278 7.00125 7.16188C6.93248 7.08895 6.84294 7.04841 6.75 7.04813V7.04813Z" fill="#23408F"/>
</svg>
