<svg width="21" height="21" viewBox="0 0 21 21" fill="none" xmlns="http://www.w3.org/2000/svg">
<path d="M1.19348 3.74197H10.7093C10.9961 5.04614 12.1619 6.02523 13.5522 6.02523C14.9425 6.02523 16.1083 5.04617 16.3951 3.74197H19.9435C20.2886 3.74197 20.5685 3.4624 20.5685 3.11757C20.5685 2.77275 20.2886 2.49318 19.9435 2.49318H16.3948C16.1074 1.18968 14.94 0.209961 13.5522 0.209961C12.1636 0.209961 10.9968 1.18952 10.7095 2.49318H1.19348C0.848325 2.49318 0.568481 2.77275 0.568481 3.11757C0.568481 3.4624 0.848325 3.74197 1.19348 3.74197ZM11.8918 3.11921C11.8918 3.11699 11.8918 3.11473 11.8918 3.1125C11.8946 2.20061 12.6394 1.45879 13.5522 1.45879C14.4637 1.45879 15.2086 2.1996 15.2125 3.11106L15.2126 3.12023C15.2112 4.03368 14.4669 4.77647 13.5522 4.77647C12.6379 4.77647 11.8938 4.03442 11.8918 3.12152L11.8918 3.11921ZM19.9435 16.6779H16.3948C16.1074 15.3744 14.94 14.3947 13.5522 14.3947C12.1636 14.3947 10.9968 15.3743 10.7095 16.6779H1.19348C0.848325 16.6779 0.568481 16.9574 0.568481 17.3023C0.568481 17.6472 0.848325 17.9267 1.19348 17.9267H10.7093C10.9961 19.2309 12.1619 20.21 13.5522 20.21C14.9425 20.21 16.1083 19.2309 16.3951 17.9267H19.9435C20.2886 17.9267 20.5685 17.6472 20.5685 17.3023C20.5685 16.9574 20.2886 16.6779 19.9435 16.6779ZM13.5522 18.9612C12.6379 18.9612 11.8938 18.2191 11.8918 17.3062L11.8918 17.3039C11.8918 17.3017 11.8918 17.2995 11.8918 17.2972C11.8946 16.3853 12.6394 15.6435 13.5522 15.6435C14.4637 15.6435 15.2086 16.3843 15.2125 17.2957L15.2126 17.3049C15.2113 18.2185 14.467 18.9612 13.5522 18.9612ZM19.9435 9.58557H10.4277C10.1409 8.2814 8.97508 7.30235 7.58477 7.30235C6.19446 7.30235 5.02868 8.2814 4.74188 9.58557H1.19348C0.848325 9.58557 0.568481 9.86514 0.568481 10.21C0.568481 10.5548 0.848325 10.8344 1.19348 10.8344H4.74219C5.02958 12.1378 6.19692 13.1176 7.58477 13.1176C8.97336 13.1176 10.1402 12.138 10.4274 10.8344H19.9435C20.2886 10.8344 20.5685 10.5548 20.5685 10.21C20.5685 9.86514 20.2886 9.58557 19.9435 9.58557ZM9.24516 10.2083C9.24516 10.2106 9.24512 10.2128 9.24512 10.215C9.24239 11.1269 8.49758 11.8687 7.58477 11.8687C6.67325 11.8687 5.9284 11.1279 5.92446 10.2165L5.92434 10.2074C5.92571 9.29382 6.67004 8.55114 7.58477 8.55114C8.49907 8.55114 9.24313 9.29315 9.2452 10.2061L9.24516 10.2083Z" fill="black"/>
</svg>
